<?xml version="1.0" encoding="UTF-8" standalone="no"?>
<!-- Created with Inkscape (http://www.inkscape.org/) -->

<svg
   version="1.1"
   id="svg1"
   width="817"
   height="817"
   viewBox="0 0 817 817"
   sodipodi:docname="drawing.svg"
   inkscape:version="1.3.2 (091e20e, 2023-11-25)"
   inkscape:export-filename="logo.png"
   inkscape:export-xdpi="104.07452"
   inkscape:export-ydpi="104.07452"
   xmlns:inkscape="http://www.inkscape.org/namespaces/inkscape"
   xmlns:sodipodi="http://sodipodi.sourceforge.net/DTD/sodipodi-0.dtd"
   xmlns:xlink="http://www.w3.org/1999/xlink"
   xmlns="http://www.w3.org/2000/svg"
   xmlns:svg="http://www.w3.org/2000/svg">
  <defs
     id="defs1">
    <linearGradient
       id="linearGradient57"
       inkscape:collect="always">
      <stop
         style="stop-color:#3c949f;stop-opacity:1;"
         offset="0"
         id="stop57" />
      <stop
         style="stop-color:#afffad;stop-opacity:1;"
         offset="1"
         id="stop58" />
    </linearGradient>
    <linearGradient
       id="linearGradient55"
       inkscape:collect="always">
      <stop
         style="stop-color:#0fb8d2;stop-opacity:1;"
         offset="0"
         id="stop55" />
      <stop
         style="stop-color:#39e6e2;stop-opacity:1;"
         offset="1"
         id="stop56" />
    </linearGradient>
    <linearGradient
       id="linearGradient53"
       inkscape:collect="always">
      <stop
         style="stop-color:#0fabd6;stop-opacity:1;"
         offset="0"
         id="stop53" />
      <stop
         style="stop-color:#35ece0;stop-opacity:1;"
         offset="1"
         id="stop54" />
    </linearGradient>
    <linearGradient
       id="linearGradient44"
       inkscape:collect="always">
      <stop
         style="stop-color:#145185;stop-opacity:1;"
         offset="0"
         id="stop44" />
      <stop
         style="stop-color:#05b2d1;stop-opacity:1;"
         offset="1"
         id="stop45" />
    </linearGradient>
    <linearGradient
       id="linearGradient34"
       inkscape:collect="always">
      <stop
         style="stop-color:#10b7d4;stop-opacity:1;"
         offset="0"
         id="stop34" />
      <stop
         style="stop-color:#1adce3;stop-opacity:1;"
         offset="0.5990712"
         id="stop35" />
      <stop
         style="stop-color:#10b7d4;stop-opacity:1;"
         offset="0.98916411"
         id="stop36" />
    </linearGradient>
    <linearGradient
       id="linearGradient19"
       inkscape:collect="always">
      <stop
         style="stop-color:#56dde2;stop-opacity:1;"
         offset="0"
         id="stop19" />
      <stop
         style="stop-color:#0291bd;stop-opacity:1;"
         offset="0.34792671"
         id="stop21" />
      <stop
         style="stop-color:#ffffff;stop-opacity:1;"
         offset="1"
         id="stop20" />
    </linearGradient>
    <linearGradient
       id="linearGradient12"
       inkscape:collect="always">
      <stop
         style="stop-color:#ffffff;stop-opacity:1;"
         offset="0.66563469"
         id="stop12" />
      <stop
         style="stop-color:#56dde2;stop-opacity:1;"
         offset="1"
         id="stop13" />
    </linearGradient>
    <linearGradient
       id="linearGradient7"
       inkscape:collect="always">
      <stop
         style="stop-color:#0a7ab4;stop-opacity:0.9311741;"
         offset="0"
         id="stop7" />
      <stop
         style="stop-color:#1ba8c0;stop-opacity:1;"
         offset="1"
         id="stop8" />
    </linearGradient>
    <rect
       x="12.981992"
       y="532.26165"
       width="811.80721"
       height="109.04873"
       id="rect5" />
    <linearGradient
       id="linearGradient4"
       inkscape:collect="always">
      <stop
         style="stop-color:#3c949f;stop-opacity:1;"
         offset="0"
         id="stop4" />
      <stop
         style="stop-color:#afffad;stop-opacity:1;"
         offset="1"
         id="stop5" />
    </linearGradient>
    <linearGradient
       inkscape:collect="always"
       xlink:href="#linearGradient4"
       id="linearGradient5"
       x1="10.132104"
       y1="389.81717"
       x2="366.55139"
       y2="264.36191"
       gradientUnits="userSpaceOnUse" />
    <linearGradient
       inkscape:collect="always"
       xlink:href="#linearGradient7"
       id="linearGradient8"
       x1="261.31415"
       y1="468.77432"
       x2="401.15088"
       y2="436.33957"
       gradientUnits="userSpaceOnUse" />
    <linearGradient
       inkscape:collect="always"
       xlink:href="#linearGradient12"
       id="linearGradient13"
       x1="189.67383"
       y1="209.73173"
       x2="677.4411"
       y2="167.50533"
       gradientUnits="userSpaceOnUse" />
    <linearGradient
       inkscape:collect="always"
       xlink:href="#linearGradient4"
       id="linearGradient14"
       gradientUnits="userSpaceOnUse"
       x1="10.132104"
       y1="389.81717"
       x2="366.55139"
       y2="264.36191"
       gradientTransform="translate(0,68)" />
    <linearGradient
       inkscape:collect="always"
       xlink:href="#linearGradient4"
       id="linearGradient15"
       gradientUnits="userSpaceOnUse"
       x1="10.132104"
       y1="389.81717"
       x2="366.55139"
       y2="264.36191"
       gradientTransform="translate(0,-72)" />
    <linearGradient
       inkscape:collect="always"
       xlink:href="#linearGradient4"
       id="linearGradient16"
       gradientUnits="userSpaceOnUse"
       gradientTransform="translate(0.8654661,137.1928)"
       x1="10.132104"
       y1="389.81717"
       x2="366.55139"
       y2="264.36191" />
    <linearGradient
       inkscape:collect="always"
       xlink:href="#linearGradient19"
       id="linearGradient20"
       x1="462.67383"
       y1="217.88867"
       x2="633.41699"
       y2="124.86817"
       gradientUnits="userSpaceOnUse" />
    <linearGradient
       inkscape:collect="always"
       xlink:href="#linearGradient34"
       id="linearGradient35"
       x1="291.23398"
       y1="171.37563"
       x2="525.16809"
       y2="298.59915"
       gradientUnits="userSpaceOnUse" />
    <linearGradient
       inkscape:collect="always"
       xlink:href="#linearGradient44"
       id="linearGradient45"
       x1="391.77234"
       y1="205.18723"
       x2="407.57733"
       y2="396.12402"
       gradientUnits="userSpaceOnUse" />
    <linearGradient
       inkscape:collect="always"
       xlink:href="#linearGradient53"
       id="linearGradient54"
       x1="345.118"
       y1="484.23843"
       x2="541.26367"
       y2="484.23843"
       gradientUnits="userSpaceOnUse" />
    <linearGradient
       inkscape:collect="always"
       xlink:href="#linearGradient55"
       id="linearGradient56"
       x1="457.17572"
       y1="291.94131"
       x2="527.16309"
       y2="429.55045"
       gradientUnits="userSpaceOnUse" />
    <linearGradient
       inkscape:collect="always"
       xlink:href="#linearGradient57"
       id="linearGradient58"
       x1="516.50854"
       y1="499.06717"
       x2="716.40637"
       y2="248.15663"
       gradientUnits="userSpaceOnUse" />
  </defs>
  <sodipodi:namedview
     id="namedview1"
     pagecolor="#ffffff"
     bordercolor="#000000"
     borderopacity="0.25"
     inkscape:showpageshadow="2"
     inkscape:pageopacity="0.0"
     inkscape:pagecheckerboard="true"
     inkscape:deskcolor="#d1d1d1"
     inkscape:zoom="0.81702424"
     inkscape:cx="348.82686"
     inkscape:cy="338.42325"
     inkscape:window-width="1712"
     inkscape:window-height="1040"
     inkscape:window-x="0"
     inkscape:window-y="372"
     inkscape:window-maximized="1"
     inkscape:current-layer="layer1" />
  <g
     inkscape:groupmode="layer"
     id="layer1"
     inkscape:label="Main"
     style="display:inline">
    <text
       xml:space="preserve"
       id="text5"
       style="font-size:85.3333px;letter-spacing:7.71px;white-space:pre;shape-inside:url(#rect5);display:inline;fill:#ffffff;fill-opacity:1"
       transform="translate(-8.2035825,-12.116525)"><tspan
         x="12.982422"
         y="610.11387"
         id="tspan2"><tspan
           style="font-weight:bold;font-family:Avenir;-inkscape-font-specification:'Avenir Bold'"
           id="tspan1">FITEVERYWHERE</tspan></tspan></text>
    <g
       id="g15"
       style="display:inline">
      <path
         style="display:inline;fill:url(#linearGradient14)"
         d="M 9.5201271,458.49153 316.10085,350.32737 c -1.38485,0 -23.47663,37.66876 -22.08203,36.53409 L 11.050069,492.90918 Z"
         id="path13"
         sodipodi:nodetypes="ccccc" />
      <path
         style="display:inline;fill:url(#linearGradient5)"
         d="M 9.5201271,390.49153 367.16335,264.15258 c 0,0 -23.591,45.45796 -24.2457,44.32329 L 11.050069,424.90918 Z"
         id="path2"
         sodipodi:nodetypes="ccccc" />
      <path
         style="display:inline;fill:url(#linearGradient15)"
         d="M 9.5201271,318.49153 341.19937,201.23997 c 2.16356,-4.32713 33.38195,23.25147 30.27866,27.01397 L 11.050069,352.90918 Z"
         id="path14"
         sodipodi:nodetypes="ccccc" />
      <path
         style="display:inline;fill:url(#linearGradient16)"
         d="M 37.215042,517.29874 255.51823,440.29136 c -1.38485,0 -55.49888,54.11261 -54.10428,52.97794 l -63.14036,26.42484 z"
         id="path15"
         sodipodi:nodetypes="ccccc" />
    </g>
    <path
       style="display:inline;fill:url(#linearGradient58);fill-opacity:1;fill-rule:nonzero"
       d="m 589.3338,358.61849 14.07547,34.27071 c 23.33647,-5.50566 64.3672,-26.27647 101.58818,-81.39294 -2.22232,6.87564 -0.80304,105.56029 -231.32729,187.87693 l 14.07547,21.41919 c 181.01948,-24.92943 293.27522,-149.89666 205.62425,-322.51185 6.16438,60.167 15.33482,120.82867 -104.03608,160.33796 z"
       id="path16"
       sodipodi:nodetypes="ccccccc" />
    <path
       style="display:inline;fill:url(#linearGradient8);fill-opacity:1"
       d="m 321.59389,396.86705 c 26.98039,37.93193 52.689,27.53662 78.94502,37.94257 -27.90193,25.50816 -68.5169,53.0504 -137.08283,85.0648 l -58.4438,-0.30599 c 40.60061,-33.65015 80.79574,-68.98982 116.58161,-122.70138 z"
       id="path7"
       sodipodi:nodetypes="ccccc"
       inkscape:label="path7" />
    <g
       id="g5"
       style="display:inline"
       inkscape:label="head">
      <path
         id="circle2"
         style="display:inline;fill:#0a96d1;fill-opacity:1"
         d="m 529.23242,102.125 a 45.43697,45.43697 0 0 1 2.04883,0.0508 45.43697,45.43697 0 0 0 -2.04883,-0.0508 z m 0,0 a 45.43697,45.43697 0 0 0 -5.37695,0.38477 45.43697,45.43697 0 0 1 5.37695,-0.38477 z m 2.06446,0.0508 a 45.43697,45.43697 0 0 1 0.58203,0.0352 45.43697,45.43697 0 0 0 -0.58203,-0.0352 z m 0.67187,0.041 a 45.43697,45.43697 0 0 1 1.39844,0.10351 45.43697,45.43697 0 0 0 -1.39844,-0.10351 z m 1.40039,0.10351 a 45.43697,45.43697 0 0 1 0.70508,0.0723 45.43697,45.43697 0 0 0 -0.70508,-0.0723 z m 0.75977,0.0781 a 45.43697,45.43697 0 0 1 1.31054,0.16211 45.43697,45.43697 0 0 0 -1.31054,-0.16211 z m 1.31054,0.16211 a 45.43697,45.43697 0 0 1 0.70508,0.0996 45.43697,45.43697 0 0 0 -0.70508,-0.0996 z m 0.70508,0.0996 a 45.43697,45.43697 0 0 1 1.55274,0.26953 45.43697,45.43697 0 0 0 -1.55274,-0.26953 z m -12.3125,-0.14844 a 45.43697,45.43697 0 0 0 -2.40625,0.36719 45.43697,45.43697 0 0 1 2.40625,-0.36719 z m -2.41211,0.36914 a 45.43697,45.43697 0 0 0 -2.72656,0.5918 45.43697,45.43697 0 0 1 2.72656,-0.5918 z m -2.72656,0.5918 a 45.43697,45.43697 0 0 0 -6.56055,2.0957 45.43697,45.43697 0 0 1 6.56055,-2.0957 z m -6.56055,2.0957 a 45.43697,45.43697 0 0 0 -0.16015,0.0586 46.637337,34.616834 15.014282 0 0 0,0.002 45.43697,45.43697 0 0 1 0.16015,-0.0606 z m -0.16015,0.0606 a 46.637337,34.616834 15.014282 0 0 -1.24219,4.18164 46.637337,34.616834 15.014282 0 1 1.24219,-4.18164 z m 0,0 a 45.43697,45.43697 0 0 0 -3.83008,1.8125 45.43697,45.43697 0 0 1 3.83008,-1.8125 z m -3.83008,1.8125 a 45.43697,45.43697 0 0 0 -0.7207,0.39257 45.43697,45.43697 0 0 1 0.7207,-0.39257 z m -0.7207,0.39257 a 45.43697,45.43697 0 0 0 -23.62696,39.72852 45.43697,45.43697 0 0 0 45.4375,45.43555 45.43697,45.43697 0 0 0 44.7832,-38.0918 45.43697,45.43697 0 0 1 -6.54492,17.01953 44.571503,50.629765 0 0 1 -25.68945,9.38867 44.571503,50.629765 0 0 1 -44.57031,-50.6289 44.571503,50.629765 0 0 1 3.02148,-17.97266 45.43697,45.43697 0 0 1 7.18946,-4.87891 z m 66.59374,47.07227 a 46.637337,34.616834 15.014282 0 1 -5.4746,0.82813 46.637337,34.616834 15.014282 0 0 5.4746,-0.82813 z m 0,0 a 45.43697,45.43697 0 0 0 0.28516,-2.19141 45.43697,45.43697 0 0 1 -0.28516,2.19141 z m 0.28516,-2.19141 a 45.43697,45.43697 0 0 0 0.36914,-5.15234 45.43697,45.43697 0 0 1 -0.36914,5.15234 z m 0.36914,-5.15234 a 45.43697,45.43697 0 0 0 -0.0508,-2.04883 45.43697,45.43697 0 0 1 0.0508,2.04883 z m -6.1289,8.17188 a 46.637337,34.616834 15.014282 0 1 -1.77735,0.10937 46.637337,34.616834 15.014282 0 0 1.77735,-0.10937 z m -1.77735,0.10937 a 46.637337,34.616834 15.014282 0 1 -3.8789,0.16016 46.637337,34.616834 15.014282 0 0 3.8789,-0.16016 z m -3.8789,0.16016 a 46.637337,34.616834 15.014282 0 1 -2.19727,-0.0684 46.637337,34.616834 15.014282 0 0 2.19727,0.0684 z m -2.19727,-0.0684 a 46.637337,34.616834 15.014282 0 1 -3.59961,-0.22852 46.637337,34.616834 15.014282 0 0 3.59961,0.22852 z m -3.59961,-0.22852 a 46.637337,34.616834 15.014282 0 1 -2.30664,-0.2793 46.637337,34.616834 15.014282 0 0 2.30664,0.2793 z m -2.30664,-0.2793 a 46.637337,34.616834 15.014282 0 1 -3.50977,-0.58203 46.637337,34.616834 15.014282 0 0 3.50977,0.58203 z m -3.50977,-0.58203 a 46.637337,34.616834 15.014282 0 1 -2.33789,-0.49414 46.637337,34.616834 15.014282 0 0 2.33789,0.49414 z m -2.33789,-0.49414 a 46.637337,34.616834 15.014282 0 1 -3.48047,-0.9414 46.637337,34.616834 15.014282 0 0 3.48047,0.9414 z m -3.48047,-0.9414 a 46.637337,34.616834 15.014282 0 1 -2.17578,-0.66016 46.637337,34.616834 15.014282 0 0 2.17578,0.66016 z M 543.27734,152.75 a 46.637337,34.616834 15.014282 0 1 -3.66601,-1.39453 46.637337,34.616834 15.014282 0 0 3.66601,1.39453 z m -3.66601,-1.39453 a 46.637337,34.616834 15.014282 0 1 -1.81055,-0.72852 46.637337,34.616834 15.014282 0 0 1.81055,0.72852 z m -1.81055,-0.72852 a 46.637337,34.616834 15.014282 0 1 -5.15234,-2.58398 46.637337,34.616834 15.014282 0 0 5.15234,2.58398 z m -5.15234,-2.58398 a 46.637337,34.616834 15.014282 0 1 -4.77344,-3.05859 46.637337,34.616834 15.014282 0 0 4.77344,3.05859 z m -4.77344,-3.05859 a 46.637337,34.616834 15.014282 0 1 -1.43359,-1.11915 46.637337,34.616834 15.014282 0 0 1.43359,1.11915 z m -1.43359,-1.11915 a 46.637337,34.616834 15.014282 0 1 -2.88868,-2.32617 46.637337,34.616834 15.014282 0 0 2.88868,2.32617 z m -2.88868,-2.32617 a 46.637337,34.616834 15.014282 0 1 -1.5332,-1.47461 46.637337,34.616834 15.014282 0 0 1.5332,1.47461 z m -1.5332,-1.47461 a 46.637337,34.616834 15.014282 0 1 -2.26562,-2.29492 46.637337,34.616834 15.014282 0 0 2.26562,2.29492 z m -2.26562,-2.29492 a 46.637337,34.616834 15.014282 0 1 -1.41016,-1.68945 46.637337,34.616834 15.014282 0 0 1.41016,1.68945 z m -1.41016,-1.68945 a 46.637337,34.616834 15.014282 0 1 -1.83594,-2.38477 46.637337,34.616834 15.014282 0 0 1.83594,2.38477 z m -1.83594,-2.38477 a 46.637337,34.616834 15.014282 0 1 -1.16406,-1.78125 46.637337,34.616834 15.014282 0 0 1.16406,1.78125 z m -1.16406,-1.78125 a 46.637337,34.616834 15.014282 0 1 -1.43945,-2.48828 46.637337,34.616834 15.014282 0 0 1.43945,2.48828 z m -1.43945,-2.48828 a 46.637337,34.616834 15.014282 0 1 -0.91016,-1.86914 46.637337,34.616834 15.014282 0 0 0.91016,1.86914 z m -0.91016,-1.86914 a 46.637337,34.616834 15.014282 0 1 -1.02539,-2.5625 46.637337,34.616834 15.014282 0 0 1.02539,2.5625 z m -1.02539,-2.5625 a 46.637337,34.616834 15.014282 0 1 -0.625,-1.89453 46.637337,34.616834 15.014282 0 0 0.625,1.89453 z m -0.625,-1.89453 a 46.637337,34.616834 15.014282 0 1 -0.60352,-2.625 46.637337,34.616834 15.014282 0 0 0.60352,2.625 z m -0.60352,-2.625 a 46.637337,34.616834 15.014282 0 1 -0.32617,-1.85352 46.637337,34.616834 15.014282 0 0 0.32617,1.85352 z m -0.32617,-1.85352 a 46.637337,34.616834 15.014282 0 1 -0.16797,-2.74023 46.637337,34.616834 15.014282 0 0 0.16797,2.74023 z m -0.16797,-2.74023 a 46.637337,34.616834 15.014282 0 1 -0.0391,-1.7168 46.637337,34.616834 15.014282 0 0 0.0391,1.7168 z m -0.0391,-1.7168 a 46.637337,34.616834 15.014282 0 1 0.32813,-2.93359 46.637337,34.616834 15.014282 0 0 -0.32813,2.93359 z m 0.32813,-2.93359 a 46.637337,34.616834 15.014282 0 1 0.19531,-1.41992 46.637337,34.616834 15.014282 0 0 -0.19531,1.41992 z m 27.24414,-8.28711 a 45.43697,45.43697 0 0 1 0.41797,0.0762 45.43697,45.43697 0 0 0 -0.0195,-0.004 45.43697,45.43697 0 0 0 -0.39843,-0.0723 z m 0.43945,0.0801 a 45.43697,45.43697 0 0 1 1.96484,0.44336 45.43697,45.43697 0 0 0 -1.96484,-0.44336 z m 1.97656,0.44531 a 45.43697,45.43697 0 0 1 0.42578,0.11523 45.43697,45.43697 0 0 0 -0.42578,-0.11523 z m 0.47461,0.12695 a 45.43697,45.43697 0 0 1 1.53906,0.42774 45.43697,45.43697 0 0 0 -1.53906,-0.42774 z m 1.54883,0.42969 a 45.43697,45.43697 0 0 1 0.55664,0.17383 45.43697,45.43697 0 0 0 -0.55664,-0.17383 z m 0.58984,0.18359 a 45.43697,45.43697 0 0 1 1.38672,0.45899 45.43697,45.43697 0 0 0 -1.38672,-0.45899 z m 1.39453,0.46094 a 45.43697,45.43697 0 0 1 0.62305,0.22266 45.43697,45.43697 0 0 0 -0.62305,-0.22266 z m 0.6836,0.24414 a 45.43697,45.43697 0 0 1 1.25976,0.48633 45.43697,45.43697 0 0 0 -1.25976,-0.48633 z m 1.2793,0.49414 a 45.43697,45.43697 0 0 1 0.625,0.25196 45.43697,45.43697 0 0 0 -0.625,-0.25196 z m 0.64648,0.26172 a 45.43697,45.43697 0 0 1 1.75781,0.7793 45.43697,45.43697 0 0 0 -1.75781,-0.7793 z m 1.85938,0.82422 a 45.43697,45.43697 0 0 1 1.82031,0.91602 45.43697,45.43697 0 0 0 -1.82031,-0.91602 z m 1.83007,0.92188 a 45.43697,45.43697 0 0 1 0.57422,0.31445 45.43697,45.43697 0 0 0 -0.57422,-0.31445 z m 0.65625,0.36132 a 45.43697,45.43697 0 0 1 1.14453,0.64844 45.43697,45.43697 0 0 0 -1.14453,-0.64844 z m 1.19336,0.67578 a 45.43697,45.43697 0 0 1 0.54883,0.33204 45.43697,45.43697 0 0 0 -0.54883,-0.33204 z m 0.56641,0.34376 a 45.43697,45.43697 0 0 1 1.23633,0.7832 45.43697,45.43697 0 0 0 -1.23633,-0.7832 z m 1.26562,0.80273 a 45.43697,45.43697 0 0 1 0.48633,0.32031 45.43697,45.43697 0 0 0 -0.48633,-0.32031 z m 0.51758,0.3418 a 45.43697,45.43697 0 0 1 1.24024,0.87304 45.43697,45.43697 0 0 0 -1.24024,-0.87304 z m 1.28125,0.90234 a 45.43697,45.43697 0 0 1 0.39258,0.2832 45.43697,45.43697 0 0 0 -0.39258,-0.2832 z m 0.41992,0.30273 a 45.43697,45.43697 0 0 1 1.61914,1.26563 45.43697,45.43697 0 0 0 -1.61914,-1.26563 z m 1.6211,1.26563 a 45.43697,45.43697 0 0 1 0.20898,0.17773 45.43697,45.43697 0 0 0 -0.20898,-0.17773 z m 0.30664,0.26367 a 45.43697,45.43697 0 0 1 1.23437,1.0625 45.43697,45.43697 0 0 0 -1.23437,-1.0625 z m 1.23633,1.06445 a 45.43697,45.43697 0 0 1 0.50586,0.46485 45.43697,45.43697 0 0 0 -0.50586,-0.46485 z m 0.56054,0.51563 a 45.43697,45.43697 0 0 1 0.98633,0.94141 45.43697,45.43697 0 0 0 -0.98633,-0.94141 z m 0.98633,0.94141 a 45.43697,45.43697 0 0 1 0.47852,0.47851 45.43697,45.43697 0 0 0 -0.47852,-0.47851 z m 0.47852,0.47851 a 45.43697,45.43697 0 0 1 0.99023,1.03906 45.43697,45.43697 0 0 0 -0.99023,-1.03906 z m 1.04687,1.09961 a 45.43697,45.43697 0 0 1 0.39258,0.42578 45.43697,45.43697 0 0 0 -0.39258,-0.42578 z m 0.39453,0.42969 a 45.43697,45.43697 0 0 1 1.02149,1.18164 45.43697,45.43697 0 0 0 -1.02149,-1.18164 z m 1.09571,1.26953 a 45.43697,45.43697 0 0 1 0.25976,0.30469 45.43697,45.43697 0 0 0 -0.25976,-0.30469 z m 0.29882,0.35156 a 45.43697,45.43697 0 0 1 1.22071,1.56641 45.43697,45.43697 0 0 0 -1.22071,-1.56641 z m 1.23243,1.58203 a 45.43697,45.43697 0 0 1 0.29101,0.4043 45.43697,45.43697 0 0 0 -0.29101,-0.4043 z m 0.32031,0.44532 a 45.43697,45.43697 0 0 1 0.87305,1.24023 45.43697,45.43697 0 0 0 -0.87305,-1.24023 z m 0.89453,1.27148 a 45.43697,45.43697 0 0 1 0.32031,0.48633 45.43697,45.43697 0 0 0 -0.32031,-0.48633 z m 0.33984,0.51562 a 45.43697,45.43697 0 0 1 0.78321,1.23633 45.43697,45.43697 0 0 0 -0.78321,-1.23633 z m 0.79493,1.25391 a 45.43697,45.43697 0 0 1 0.33203,0.54883 45.43697,45.43697 0 0 0 -0.33203,-0.54883 z m 0.35937,0.59766 a 45.43697,45.43697 0 0 1 0.64844,1.14453 45.43697,45.43697 0 0 0 -0.64844,-1.14453 z m 0.69531,1.22656 a 45.43697,45.43697 0 0 1 0.31446,0.57422 45.43697,45.43697 0 0 0 -0.31446,-0.57422 z m 0.32032,0.58398 a 45.43697,45.43697 0 0 1 0.91601,1.82032 45.43697,45.43697 0 0 0 -0.91601,-1.82032 z m 0.96093,1.92188 a 45.43697,45.43697 0 0 1 0.7793,1.75781 45.43697,45.43697 0 0 0 -0.7793,-1.75781 z m 0.78907,1.7793 a 45.43697,45.43697 0 0 1 0.25,0.61914 45.43697,45.43697 0 0 0 -0.25,-0.61914 z m 0.26171,0.65234 a 45.43697,45.43697 0 0 1 0.47852,1.23633 45.43697,45.43697 0 0 0 -0.47852,-1.23633 z m 0.4961,1.28516 a 45.43697,45.43697 0 0 1 0.24023,0.67578 45.43697,45.43697 0 0 0 -0.24023,-0.67578 z m 0.24219,0.67968 a 45.43697,45.43697 0 0 1 0.45117,1.36719 45.43697,45.43697 0 0 0 -0.45117,-1.36719 z m 0.45117,1.36719 a 45.43697,45.43697 0 0 1 0.18359,0.58789 45.43697,45.43697 0 0 0 -0.002,-0.01 45.43697,45.43697 0 0 0 -0.18164,-0.57813 z m 0.18554,0.59766 a 45.43697,45.43697 0 0 1 0.42774,1.53906 45.43697,45.43697 0 0 0 -0.42774,-1.53906 z m 0.43946,1.58789 a 45.43697,45.43697 0 0 1 0.11523,0.42578 45.43697,45.43697 0 0 0 -0.11523,-0.42578 z m 0.11718,0.4375 a 45.43697,45.43697 0 0 1 0.44336,1.96484 45.43697,45.43697 0 0 0 -0.44336,-1.96484 z m 0.45118,2.00781 a 45.43697,45.43697 0 0 1 0.0879,0.47852 45.43697,45.43697 0 0 0 -0.0156,-0.0879 45.43697,45.43697 0 0 0 -0.0723,-0.39063 z m 0.10351,0.56445 a 45.43697,45.43697 0 0 1 0.25,1.44922 45.43697,45.43697 0 0 0 -0.25,-1.44922 z m 0.25391,1.47266 a 45.43697,45.43697 0 0 1 0.0937,0.66406 45.43697,45.43697 0 0 0 -0.0937,-0.66406 z m 0.0996,0.70313 a 45.43697,45.43697 0 0 1 0.16211,1.32421 45.43697,45.43697 0 0 0 -0.16211,-1.32421 z m 0.16406,1.33984 a 45.43697,45.43697 0 0 1 0.0723,0.7168 45.43697,45.43697 0 0 0 -0.0723,-0.7168 z m 0.0742,0.73242 a 45.43697,45.43697 0 0 1 0.10351,1.375 45.43697,45.43697 0 0 0 -0.10351,-1.375 z m 0.10742,1.4375 a 45.43697,45.43697 0 0 1 0.0371,0.62891 45.43697,45.43697 0 0 0 -0.0371,-0.62891 z" />
      <path
         id="circle1"
         style="display:inline;fill:#4af3f1;fill-opacity:1"
         d="m 531.28125,102.17578 a 45.43697,45.43697 0 0 1 0.64063,0.0371 45.43697,45.43697 0 0 0 -0.64063,-0.0371 z m 2.08594,0.14453 a 45.43697,45.43697 0 0 1 0.73437,0.0742 45.43697,45.43697 0 0 0 -0.73437,-0.0742 z m -9.52344,0.18946 a 45.43697,45.43697 0 0 0 -2.42383,0.37109 45.43697,45.43697 0 0 1 2.42383,-0.37109 z m 13.85352,0.41992 a 45.43697,45.43697 0 0 1 0.5,0.0898 45.43697,45.43697 0 0 0 -0.5,-0.0898 z m 2.48632,0.53711 a 45.43697,45.43697 0 0 1 0.48438,0.1289 45.43697,45.43697 0 0 0 -0.48438,-0.1289 z m 2.03516,0.55859 a 45.43697,45.43697 0 0 1 0.58203,0.18164 45.43697,45.43697 0 0 0 -0.58203,-0.18164 z m 1.97656,0.64258 a 45.43697,45.43697 0 0 1 0.66016,0.23437 45.43697,45.43697 0 0 0 -0.66016,-0.23437 z m 1.97071,0.74023 a 45.43697,45.43697 0 0 1 0.64648,0.26172 45.43697,45.43697 0 0 0 -0.64648,-0.26172 z m -34.19336,0.22071 a 45.43697,45.43697 0 0 0 -11.74024,7.08398 44.571503,50.629765 0 0 0 -3.02148,17.97266 44.571503,50.629765 0 0 0 44.57031,50.6289 44.571503,50.629765 0 0 0 25.68945,-9.38867 45.43697,45.43697 0 0 0 6.54492,-17.01953 46.637337,34.616834 15.014282 0 1 -41.36718,-6.86328 46.637337,34.616834 15.014282 0 1 -20.67578,-42.41406 z m 38.51953,1.78125 a 45.43697,45.43697 0 0 1 0.62304,0.34179 45.43697,45.43697 0 0 0 -0.62304,-0.34179 z m 1.83593,1.02929 a 45.43697,45.43697 0 0 1 0.58985,0.35743 45.43697,45.43697 0 0 0 -0.58985,-0.35743 z m 1.82618,1.14063 a 45.43697,45.43697 0 0 1 0.53125,0.34961 45.43697,45.43697 0 0 0 -0.53125,-0.34961 z m 1.80664,1.24804 a 45.43697,45.43697 0 0 1 0.43359,0.3125 45.43697,45.43697 0 0 0 -0.43359,-0.3125 z m 2.06054,1.58399 a 45.43697,45.43697 0 0 1 0.25586,0.2168 45.43697,45.43697 0 0 0 -0.25586,-0.2168 z m 1.54297,1.32617 a 45.43697,45.43697 0 0 1 0.53516,0.49219 45.43697,45.43697 0 0 0 -0.53516,-0.49219 z m 1.54883,1.45899 a 45.43697,45.43697 0 0 1 0.47852,0.47851 45.43697,45.43697 0 0 0 -0.47852,-0.47851 z m 1.49805,1.54882 a 45.43697,45.43697 0 0 1 0.42187,0.45899 45.43697,45.43697 0 0 0 -0.42187,-0.45899 z m 1.47656,1.67969 a 45.43697,45.43697 0 0 1 0.31445,0.36914 45.43697,45.43697 0 0 0 -0.31445,-0.36914 z m 1.56641,1.97461 a 45.43697,45.43697 0 0 1 0.3125,0.43359 45.43697,45.43697 0 0 0 -0.3125,-0.43359 z m 1.21093,1.70899 a 45.43697,45.43697 0 0 1 0.34961,0.53124 45.43697,45.43697 0 0 0 -0.34961,-0.53124 z m 1.13282,1.76757 a 45.43697,45.43697 0 0 1 0.35742,0.58985 45.43697,45.43697 0 0 0 -0.35742,-0.58985 z m 1.04492,1.80274 a 45.43697,45.43697 0 0 1 0.3418,0.62304 45.43697,45.43697 0 0 0 -0.3418,-0.62304 z m 2.08203,4.30273 a 45.43697,45.43697 0 0 1 0.26562,0.65625 45.43697,45.43697 0 0 0 -0.26562,-0.65625 z m 0.75977,1.93555 a 45.43697,45.43697 0 0 1 0.25,0.70312 45.43697,45.43697 0 0 0 -0.25,-0.70312 z m 0.70117,2.07031 a 45.43697,45.43697 0 0 1 0.18359,0.58789 45.43697,45.43697 0 0 0 -0.18359,-0.58789 z m 0.61328,2.13867 a 45.43697,45.43697 0 0 1 0.1289,0.48438 45.43697,45.43697 0 0 0 -0.1289,-0.48438 z m 0.57617,2.47071 a 45.43697,45.43697 0 0 1 0.0918,0.5 45.43697,45.43697 0 0 0 -0.0918,-0.5 z m 0.35938,2.04687 a 45.43697,45.43697 0 0 1 0.0996,0.70703 45.43697,45.43697 0 0 0 -0.0996,-0.70703 z m 0.26367,2.03906 a 45.43697,45.43697 0 0 1 0.0762,0.74805 45.43697,45.43697 0 0 0 -0.0762,-0.74805 z m 0.18359,2.18555 a 45.43697,45.43697 0 0 1 0.0371,0.64453 45.43697,45.43697 0 0 0 -0.0371,-0.64453 z" />
      <path
         id="path8"
         style="fill:#ffffff;fill-opacity:1"
         d="m 529.23242,102.125 a 45.43697,45.43697 0 0 0 -17.25976,3.50195 46.637337,34.616834 15.014282 0 0 20.67578,42.41602 46.637337,34.616834 15.014282 0 0 41.36718,6.86328 45.43697,45.43697 0 0 0 0.6543,-7.34375 45.43697,45.43697 0 0 0 -45.4375,-45.4375 z"
         inkscape:label="path8" />
    </g>
    <g
       id="g58">
      <path
         id="path10"
         style="display:inline;fill:url(#linearGradient13)"
         d="m 355.53125,135.3125 c -53.60612,-0.10475 -112.28425,17.07295 -165.85742,59.05469 128.60258,-56.67282 155.34058,-33.41372 182.4082,-35.86524 74.24477,10.11292 129.7918,136.88629 237.44727,124.84375 75.979,-12.80563 53.80774,-105.40546 16.65039,-140.65234 15.27262,60.90897 37.51759,121.60675 -39.39453,120.4082 -37.86226,-16.10062 -72.18774,-37.85846 -104.28711,-63.17968 -19.08339,-31.96794 -40.9225,-51.25929 -65.77539,-56.6875 -19.15289,-5.07951 -39.76743,-7.88002 -61.19141,-7.92188 z"
         sodipodi:insensitive="true" />
      <path
         id="path18"
         style="display:inline;fill:url(#linearGradient20)"
         d="m 620.53906,117.70312 c 1.56038,8.22687 3.53951,16.61075 5.64063,24.99024 37.15727,35.2468 59.32845,127.84675 -16.65039,140.65234 -61.65568,6.89692 -106.08196,-31.67249 -146.85547,-67.84765 7.80086,41.40406 44.08311,73.34921 81.48828,89.99023 0.007,0.003 0.0129,0.005 0.0195,0.008 17.19011,6.93156 33.82302,10.51776 50.20117,12.57813 123.35778,-7.84665 82.69732,-195.86834 26.15625,-200.3711 z m 12.72461,52.64649 c 0.79597,3.16714 1.55186,6.29345 2.2793,9.39648 -0.72656,-3.10032 -1.48424,-6.23214 -2.2793,-9.39648 z m 3.13281,13.14258 c 0.59325,2.63885 1.13159,5.23348 1.64258,7.80664 -0.51046,-2.57182 -1.0499,-5.16918 -1.64258,-7.80664 z m 2.42188,11.85156 c 0.45202,2.49261 0.81771,4.92042 1.16016,7.33203 -0.34205,-2.41086 -0.70857,-4.8402 -1.16016,-7.33203 z M 640.5,206.39062 c 0.31567,2.68053 0.49528,5.2667 0.63086,7.82032 -0.13515,-2.55306 -0.31565,-5.14039 -0.63086,-7.82032 z m 0.80078,10.35352 c 0.0943,3.35601 0.0224,6.59673 -0.28125,9.68164 0.30409,-3.08417 0.37501,-6.32646 0.28125,-9.68164 z m -0.38086,10.45703 c -0.13742,1.23393 -0.30092,2.44996 -0.51172,3.63477 0.21095,-1.18454 0.37413,-2.40113 0.51172,-3.63477 z m -0.79492,4.98633 c -0.20081,0.9732 -0.41778,1.93647 -0.67383,2.87305 0.25621,-0.93656 0.47286,-1.89987 0.67383,-2.87305 z m -1.12109,4.3457 c -0.26568,0.84975 -0.55265,1.68563 -0.86914,2.50196 0.31664,-0.81631 0.60331,-1.65223 0.86914,-2.50196 z m -1.48829,3.99805 c -0.34115,0.77721 -0.71453,1.5339 -1.10742,2.27734 0.39304,-0.7434 0.76612,-1.50016 1.10742,-2.27734 z m -1.85937,3.65039 c -0.44919,0.76121 -0.94484,1.49129 -1.45508,2.21289 0.51017,-0.72132 1.00591,-1.452 1.45508,-2.21289 z m -2.27148,3.36524 c -0.60488,0.77877 -1.27411,1.51695 -1.95899,2.24414 0.68512,-0.72728 1.35388,-1.46527 1.95899,-2.24414 z m -2.73438,3.0957 c -0.98432,0.97099 -2.04103,1.89541 -3.18555,2.76367 1.14454,-0.86812 2.20115,-1.79285 3.18555,-2.76367 z m -3.78711,3.16797 c -0.97521,0.70826 -1.99176,1.38986 -3.08398,2.02343 1.09216,-0.63346 2.10879,-1.3153 3.08398,-2.02343 z m -4.53711,2.78125 c -0.88902,0.46763 -1.79042,0.92734 -2.7539,1.34765 0.96337,-0.42025 1.86496,-0.8801 2.7539,-1.34765 z m -4.58789,2.07617 c -0.95227,0.36839 -1.92768,0.72232 -2.94922,1.04687 1.02168,-0.32457 1.99681,-0.67844 2.94922,-1.04687 z m -5.04492,1.66015 c -1.05322,0.29051 -2.14413,0.55654 -3.26758,0.80274 1.12311,-0.24614 2.21465,-0.51233 3.26758,-0.80274 z m -5.58594,1.2793 c -1.18919,0.21882 -2.43663,0.40083 -3.70117,0.57227 1.2652,-0.17152 2.51139,-0.35333 3.70117,-0.57227 z m -6.18554,0.89649 c -1.42615,0.15195 -2.93074,0.25554 -4.44922,0.34961 1.51807,-0.094 3.02341,-0.19772 4.44922,-0.34961 z m -6.73829,0.5 c -2.36314,0.097 -4.81565,0.1379 -7.39843,0.0976 2.58281,0.0403 5.03525,-6.4e-4 7.39843,-0.0976 z"
         sodipodi:insensitive="true" />
      <path
         d="m 529.06269,297.83909 c -31.6188,-17.88045 -59.6437,-46.53812 -66.3847,-82.3125 0,0 0,-0.002 0,-0.002 -30.42,-26.98925 -58.8681,-52.67499 -90.5918,-56.99609 -11.8421,1.07254 -23.621,-2.77595 -43.8945,-2.69922 -26.0662,0.0987 -66.175,6.68609 -138.5137,38.56445 -10.6593,8.35294 -21.1183,17.67995 -31.29305,28.05664 78.41755,-43.52859 158.82425,-63.88071 233.80675,-18.0957 0.023,0.0664 0.038,0.129 0.061,0.19531 39.2379,12.89181 22.1883,97.35568 127.584,94.82813 2.3115,-0.66226 4.6381,-1.26576 6.9355,-1.98438 0.5931,0.31572 1.176,0.57599 1.7676,0.88282 z"
         style="display:inline;fill:url(#linearGradient35)"
         id="path30"
         sodipodi:insensitive="true" />
      <path
         d="m 439.40625,416.36719 c -63.68094,-16.31938 -84.43426,-12.3967 -50.31641,-137.51367 -15.46147,32.14438 -45.06613,56.6213 -51.27929,93.23242 10.92954,56.54654 54.10282,54.61353 101.5957,44.28125 z"
         style="display:inline;fill:#0076b8;fill-opacity:1"
         id="path40"
         sodipodi:insensitive="true" />
      <path
         d="m 424.99609,246.55078 c -9.75824,-18.78392 -16.37432,-36.64377 -32.74804,-42.02344 10.67925,31.04512 6.52885,54.1868 -3.15821,74.32618 -34.11781,125.11684 -13.36447,121.1943 50.31641,137.51367 37.61096,-8.18244 77.88686,-21.55362 107.12109,-15.54102 l 1.80469,-0.59375 c -87.20092,-21.74311 -131.63619,2.18027 -148.71094,-53.24219 -8.60768,-25.29364 27.85251,-51.57389 25.375,-100.43945 z"
         style="display:inline;fill:url(#linearGradient45)"
         id="path44"
         sodipodi:insensitive="true" />
      <path
         d="m 410.26758,339.69336 -8.79883,3.35547 c 43.1671,35.69601 129.95126,5.69498 163.99805,58.4082 l 20.11523,-1.05859 c 0.09,-2.77444 -0.18926,-5.5547 -0.98047,-8.33789 -1.54914,-26.00123 -48.50832,-73.27845 -174.33398,-52.36719 z"
         style="display:inline;fill:#fdffff;fill-opacity:1"
         id="path48"
         sodipodi:insensitive="true" />
      <path
         d="m 424.99609,246.55078 c 2.47751,48.86546 -33.98266,75.14587 -25.375,100.43945 17.07473,55.42236 61.5102,31.49912 148.71094,53.24219 l -1.80469,0.59375 c 1.16533,0.23968 2.34731,0.45088 3.47657,0.75391 -56.61954,12.68795 -124.68206,64.97918 -191.0586,111.4414 l 156.03321,-67.19531 26.28515,5.76953 c 25.80468,-15.94888 43.74188,-33.43047 44.31836,-51.19726 l -20.11523,1.05859 C 531.42004,348.74386 444.63581,378.7448 401.46875,343.04883 l 8.79883,-3.35547 c -0.0126,0.002 -0.0245,0.004 -0.0371,0.006 33.55068,-25.37946 72.37262,-29.67752 109.60156,-40.34375 -61.41443,1.47282 -81.20964,-26.57504 -94.83594,-52.80469 z"
         style="display:inline;fill:url(#linearGradient56)"
         id="path51" />
      <path
         d="m 541.26367,451.5957 -26.28515,-5.76953 -156.03321,67.19531 c -3.38617,2.37026 -6.78655,4.79345 -10.16211,7.12696 -28.51534,12.1605 116.34719,-21.49767 192.48047,-68.55274 z"
         style="display:inline;fill:url(#linearGradient54)"
         id="path53" />
    </g>
  </g>
</svg>
